<svg width="19" height="21" viewBox="0 0 19 21" fill="none" xmlns="http://www.w3.org/2000/svg">
<path d="M1.8363 11.9191C1.66283 11.9197 1.49276 11.871 1.34584 11.7788C1.19892 11.6866 1.08118 11.5546 1.0063 11.3981C0.931424 11.2416 0.902482 11.0671 0.922838 10.8948C0.943194 10.7226 1.01201 10.5596 1.1213 10.4249L10.1963 1.07491C10.2644 0.996332 10.3571 0.943234 10.4594 0.924329C10.5616 0.905424 10.6672 0.921836 10.7589 0.97087C10.8506 1.0199 10.9228 1.09865 10.9639 1.19417C11.0049 1.2897 11.0122 1.39634 10.9846 1.49657L9.22463 7.01491C9.17273 7.1538 9.1553 7.30322 9.17384 7.45033C9.19237 7.59744 9.24632 7.73787 9.33105 7.85955C9.41577 7.98123 9.52876 8.08055 9.6603 8.14897C9.79184 8.2174 9.93802 8.25289 10.0863 8.25241H16.503C16.6764 8.25182 16.8465 8.30046 16.9934 8.39268C17.1403 8.4849 17.2581 8.61692 17.333 8.77339C17.4078 8.92986 17.4368 9.10437 17.4164 9.27664C17.3961 9.44891 17.3272 9.61186 17.218 9.74657L8.14296 19.0966C8.07489 19.1751 7.98213 19.2282 7.8799 19.2472C7.77767 19.2661 7.67205 19.2496 7.58038 19.2006C7.48871 19.1516 7.41643 19.0728 7.37541 18.9773C7.33439 18.8818 7.32706 18.7751 7.35463 18.6749L9.11463 13.1566C9.16653 13.0177 9.18396 12.8683 9.16542 12.7212C9.14689 12.574 9.09294 12.4336 9.00821 12.3119C8.92349 12.1903 8.8105 12.0909 8.67896 12.0225C8.54742 11.9541 8.40124 11.9186 8.25296 11.9191H1.8363Z" stroke="#2563EB" stroke-width="1.83333" stroke-linecap="round" stroke-linejoin="round"/>
</svg>
