<svg width="22" height="22" viewBox="0 0 22 22" fill="none" xmlns="http://www.w3.org/2000/svg">
<path d="M18.3332 11.9167C18.3332 16.5 15.1248 18.7917 11.3115 20.1209C11.1118 20.1885 10.8949 20.1853 10.6973 20.1117C6.87484 18.7917 3.6665 16.5 3.6665 11.9167V5.50003C3.6665 5.25691 3.76308 5.02375 3.93499 4.85184C4.1069 4.67994 4.34006 4.58336 4.58317 4.58336C6.4165 4.58336 8.70817 3.48336 10.3032 2.09003C10.4974 1.92411 10.7444 1.83295 10.9998 1.83295C11.2553 1.83295 11.5023 1.92411 11.6965 2.09003C13.3007 3.49253 15.5832 4.58336 17.4165 4.58336C17.6596 4.58336 17.8928 4.67994 18.0647 4.85184C18.2366 5.02375 18.3332 5.25691 18.3332 5.50003V11.9167Z" stroke="#2563EB" stroke-width="1.83333" stroke-linecap="round" stroke-linejoin="round"/>
</svg>
