<svg width="22" height="22" viewBox="0 0 22 22" fill="none" xmlns="http://www.w3.org/2000/svg">
<path d="M10.5644 2.10375C10.6046 2.02259 10.6667 1.95428 10.7436 1.90651C10.8205 1.85875 10.9093 1.83344 10.9999 1.83344C11.0904 1.83344 11.1792 1.85875 11.2561 1.90651C11.333 1.95428 11.3951 2.02259 11.4353 2.10375L13.5528 6.39284C13.6923 6.67514 13.8982 6.91938 14.1528 7.10459C14.4075 7.28979 14.7033 7.41044 15.0149 7.45617L19.7504 8.14917C19.8401 8.16217 19.9244 8.20002 19.9937 8.25844C20.0631 8.31685 20.1147 8.39351 20.1427 8.47973C20.1708 8.56595 20.1741 8.65829 20.1524 8.74632C20.1307 8.83435 20.0848 8.91454 20.0199 8.97784L16.5952 12.3127C16.3693 12.5328 16.2004 12.8044 16.1028 13.1043C16.0052 13.4042 15.982 13.7233 16.0351 14.0342L16.8436 18.7458C16.8594 18.8355 16.8498 18.9279 16.8156 19.0123C16.7815 19.0967 16.7244 19.1699 16.6507 19.2234C16.577 19.2769 16.4898 19.3087 16.3989 19.315C16.308 19.3213 16.2172 19.302 16.1369 19.2592L11.9037 17.0335C11.6248 16.887 11.3144 16.8105 10.9994 16.8105C10.6844 16.8105 10.374 16.887 10.0951 17.0335L5.86286 19.2592C5.7825 19.3017 5.69181 19.3209 5.60111 19.3144C5.51041 19.308 5.42333 19.2762 5.3498 19.2227C5.27626 19.1692 5.21921 19.0962 5.18513 19.0119C5.15105 18.9276 5.14131 18.8354 5.15703 18.7458L5.96461 14.0351C6.01796 13.7241 5.99484 13.4048 5.89727 13.1047C5.79969 12.8046 5.63058 12.5328 5.40453 12.3127L1.97986 8.97875C1.9144 8.91553 1.86802 8.8352 1.84599 8.74691C1.82396 8.65861 1.82718 8.5659 1.85526 8.47935C1.88335 8.39279 1.93519 8.31586 2.00486 8.25732C2.07454 8.19879 2.15925 8.16099 2.24936 8.14825L6.98394 7.45617C7.29584 7.4108 7.59205 7.29031 7.84706 7.10508C8.10207 6.91984 8.30825 6.67542 8.44786 6.39284L10.5644 2.10375Z" stroke="#2563EB" stroke-width="1.83333" stroke-linecap="round" stroke-linejoin="round"/>
</svg>
