<svg width="13" height="13" viewBox="0 0 13 13" fill="none" xmlns="http://www.w3.org/2000/svg">
<path d="M10.2917 9.20841H11.375C11.7 9.20841 11.9167 8.99175 11.9167 8.66675V7.04175C11.9167 6.55425 11.5375 6.12092 11.1042 6.01258C10.1292 5.74175 8.66671 5.41675 8.66671 5.41675C8.66671 5.41675 7.96254 4.65841 7.47504 4.17091C7.20421 3.95425 6.87921 3.79175 6.50004 3.79175H2.70837C2.38337 3.79175 2.11254 4.00841 1.95004 4.27925L1.19171 5.85008C1.11998 6.05929 1.08337 6.27892 1.08337 6.50008V8.66675C1.08337 8.99175 1.30004 9.20841 1.62504 9.20841H2.70837" stroke="white" stroke-width="1.08333" stroke-linecap="round" stroke-linejoin="round"/>
<path d="M3.79171 10.2917C4.39002 10.2917 4.87504 9.80664 4.87504 9.20833C4.87504 8.61002 4.39002 8.125 3.79171 8.125C3.1934 8.125 2.70837 8.61002 2.70837 9.20833C2.70837 9.80664 3.1934 10.2917 3.79171 10.2917Z" stroke="white" stroke-width="1.08333" stroke-linecap="round" stroke-linejoin="round"/>
<path d="M4.875 9.20825H8.125" stroke="white" stroke-width="1.08333" stroke-linecap="round" stroke-linejoin="round"/>
<path d="M9.20833 10.2917C9.80664 10.2917 10.2917 9.80664 10.2917 9.20833C10.2917 8.61002 9.80664 8.125 9.20833 8.125C8.61002 8.125 8.125 8.61002 8.125 9.20833C8.125 9.80664 8.61002 10.2917 9.20833 10.2917Z" stroke="white" stroke-width="1.08333" stroke-linecap="round" stroke-linejoin="round"/>
</svg>
