<svg width="12" height="14" viewBox="0 0 12 14" fill="none" xmlns="http://www.w3.org/2000/svg">
<g clip-path="url(#clip0_3_521)">
<path d="M11 10.46V11.96C11.0006 12.0993 10.972 12.2371 10.9163 12.3647C10.8605 12.4923 10.7786 12.6068 10.676 12.701C10.5734 12.7951 10.4523 12.8668 10.3204 12.9114C10.1885 12.956 10.0487 12.9726 9.91 12.96C8.37141 12.7929 6.8935 12.2671 5.595 11.425C4.38691 10.6574 3.36267 9.63313 2.595 8.42505C1.74999 7.12065 1.22412 5.63555 1.06 4.09005C1.0475 3.95178 1.06393 3.81243 1.10825 3.68086C1.15256 3.54929 1.22378 3.42839 1.31738 3.32586C1.41098 3.22332 1.5249 3.1414 1.65189 3.08531C1.77889 3.02922 1.91617 3.00018 2.055 3.00005H3.555C3.79765 2.99766 4.03289 3.08359 4.21688 3.24181C4.40086 3.40004 4.52104 3.61977 4.555 3.86005C4.61831 4.34008 4.73572 4.81141 4.905 5.26505C4.97227 5.44401 4.98683 5.63851 4.94695 5.82549C4.90707 6.01247 4.81443 6.1841 4.68 6.32005L4.045 6.95505C4.75677 8.20682 5.79322 9.24327 7.045 9.95505L7.68 9.32005C7.81594 9.18562 7.98757 9.09297 8.17456 9.0531C8.36154 9.01322 8.55603 9.02778 8.735 9.09505C9.18863 9.26432 9.65996 9.38174 10.14 9.44505C10.3829 9.47931 10.6047 9.60165 10.7633 9.7888C10.9218 9.97594 11.0061 10.2148 11 10.46Z" stroke="#2563EB" stroke-linecap="round" stroke-linejoin="round"/>
</g>
<defs>
<clipPath id="clip0_3_521">
<rect width="12" height="12" fill="white" transform="translate(0 2)"/>
</clipPath>
</defs>
</svg>
